<svg width="36" height="36" viewBox="0 0 36 36" fill="none" xmlns="http://www.w3.org/2000/svg">
    <path fill-rule="evenodd" clip-rule="evenodd" d="M9.51472 26.4851C10.1842 27.1546 11.2696 27.1546 11.9391 26.4851L18 20.4242L24.0609 26.4851C24.7304 27.1546 25.8158 27.1546 26.4853 26.4851C27.1547 25.8157 27.1547 24.7302 26.4853 24.0608L20.4244 17.9999L26.4853 11.9389C27.1548 11.2695 27.1548 10.1841 26.4853 9.51458C25.8158 8.84511 24.7304 8.84511 24.0609 9.51458L18 15.5755L11.9391 9.51458C11.2696 8.84511 10.1842 8.84511 9.51472 9.51458C8.84525 10.1841 8.84525 11.2695 9.51472 11.9389L15.5756 17.9999L9.51472 24.0608C8.84525 24.7302 8.84525 25.8157 9.51472 26.4851Z" fill="#222B45"/>
    <mask id="mask0" mask-type="alpha" maskUnits="userSpaceOnUse" x="9" y="9" width="18" height="18">
        <path fill-rule="evenodd" clip-rule="evenodd" d="M9.51472 26.4851C10.1842 27.1546 11.2696 27.1546 11.9391 26.4851L18 20.4242L24.0609 26.4851C24.7304 27.1546 25.8158 27.1546 26.4853 26.4851C27.1547 25.8157 27.1547 24.7302 26.4853 24.0608L20.4244 17.9999L26.4853 11.9389C27.1548 11.2695 27.1548 10.1841 26.4853 9.51458C25.8158 8.84511 24.7304 8.84511 24.0609 9.51458L18 15.5755L11.9391 9.51458C11.2696 8.84511 10.1842 8.84511 9.51472 9.51458C8.84525 10.1841 8.84525 11.2695 9.51472 11.9389L15.5756 17.9999L9.51472 24.0608C8.84525 24.7302 8.84525 25.8157 9.51472 26.4851Z" fill="white"/>
    </mask>
    <g mask="url(#mask0)">
    </g>
</svg>
