<svg width="58" height="40" viewBox="0 0 58 40" fill="none" xmlns="http://www.w3.org/2000/svg">
<path d="M1.75781 21.5923V33.948C1.75781 35.0403 2.28003 36.0879 3.20959 36.8603C4.13915 37.6326 5.3999 38.0666 6.71449 38.0666H51.3246C52.6392 38.0666 53.8999 37.6326 54.8295 36.8603C55.759 36.0879 56.2812 35.0403 56.2812 33.948V21.5923" stroke="#055445" stroke-width="2" stroke-miterlimit="10" stroke-linecap="round" stroke-linejoin="round"/>
<path d="M56.2812 11.2963V5.1185C56.2812 4.02621 55.759 2.97865 54.8295 2.20628C53.8999 1.43391 52.6392 1 51.3246 1H6.71449C5.3999 1 4.13915 1.43391 3.20959 2.20628C2.28003 2.97865 1.75781 4.02621 1.75781 5.1185V11.2963L29.0195 23.6518L56.2812 11.2963Z" stroke="#055445" stroke-width="2" stroke-miterlimit="10" stroke-linecap="round" stroke-linejoin="round"/>
</svg>
