<svg width="99" height="47" viewBox="0 0 99 47" fill="none" xmlns="http://www.w3.org/2000/svg">
    <path d="M59.9598 14.311C61.7819 14.311 63.2547 14.8715 64.378 15.9925C65.5014 17.1134 66.0619 18.5728 66.0595 20.3707C66.0595 22.2632 65.4529 23.7869 64.2397 24.9418C63.0266 26.0967 61.424 26.6791 59.432 26.6888H56.3422V31.1325H50.7957V14.311H59.9598ZM58.5513 22.4961C59.0861 22.5009 59.6042 22.3093 60.0071 21.9575C60.207 21.7857 60.366 21.5713 60.4724 21.3302C60.5788 21.089 60.63 20.8271 60.6221 20.5636C60.626 20.3179 60.574 20.0746 60.47 19.852C60.3659 19.6294 60.2126 19.4334 60.0216 19.2789C59.6134 18.9392 59.0969 18.7571 58.5659 18.7657H56.3567V22.4961H58.5513Z" fill="#FF7900"/>
    <path d="M81.9529 31.1325H76.5556V30.077C76.1081 30.5487 75.5656 30.9201 74.9639 31.1667C74.3623 31.4132 73.7152 31.5294 73.0653 31.5073C72.236 31.5382 71.4099 31.3882 70.6444 31.0676C69.879 30.7471 69.1924 30.2638 68.6325 29.6512C67.5043 28.4138 66.939 26.7821 66.9365 24.7562C66.9341 22.7302 67.4994 21.0973 68.6325 19.8575C69.1924 19.245 69.879 18.7616 70.6444 18.4411C71.4099 18.1206 72.236 17.9705 73.0653 18.0014C73.7152 17.9794 74.3623 18.0955 74.9639 18.3421C75.5656 18.5886 76.1081 18.96 76.5556 19.4317V18.3763H81.9529V31.1325ZM75.9623 26.4012C76.3474 25.9424 76.5585 25.3625 76.5585 24.7635C76.5585 24.1644 76.3474 23.5846 75.9623 23.1257C75.7762 22.9065 75.5431 22.7319 75.2805 22.6147C75.0178 22.4976 74.7322 22.4409 74.4447 22.4488C74.1567 22.4371 73.8698 22.4921 73.6066 22.6095C73.3433 22.7269 73.1108 22.9036 72.927 23.1257C72.5587 23.5921 72.3583 24.1691 72.3583 24.7635C72.3583 25.3578 72.5587 25.9348 72.927 26.4012C73.1108 26.6234 73.3433 26.8 73.6066 26.9175C73.8698 27.0349 74.1567 27.0899 74.4447 27.0781C74.7322 27.0861 75.0178 27.0294 75.2805 26.9122C75.5431 26.7951 75.7762 26.6204 75.9623 26.4012Z" fill="#FF7900"/>
    <path d="M91.6702 35.4016H86.0691L88.129 30.6558L82.83 18.3763H88.4311L90.8149 24.4033L93.4025 18.3763H99L91.6702 35.4016Z" fill="#FF7900"/>
    <path d="M7.35531 25.102C7.68644 24.7451 7.94399 24.3265 8.11322 23.87C8.28245 23.4135 8.36006 22.9281 8.34159 22.4416C8.37791 21.4603 8.02316 20.5047 7.35531 19.7848C7.02208 19.4395 6.61959 19.1686 6.17425 18.9898C5.72891 18.811 5.2508 18.7285 4.7713 18.7476H3.43927V26.1247H4.7713C5.24973 26.1457 5.72719 26.0654 6.17246 25.8892C6.61774 25.7129 7.0208 25.4447 7.35531 25.102Z" fill="#055445"/>
    <path d="M22.6518 19.0242C22.2265 19.0116 21.8034 19.0909 21.4115 19.2567C21.0195 19.4225 20.668 19.6709 20.3808 19.985C19.8079 20.6563 19.4932 21.5099 19.4932 22.3925C19.4932 23.275 19.8079 24.1286 20.3808 24.8C20.6776 25.1054 21.0326 25.3481 21.4249 25.5139C21.8172 25.6797 22.2387 25.7651 22.6646 25.7651C23.0904 25.7651 23.512 25.6797 23.9042 25.5139C24.2965 25.3481 24.6515 25.1054 24.9483 24.8C25.5212 24.1286 25.836 23.275 25.836 22.3925C25.836 21.5099 25.5212 20.6563 24.9483 19.985C24.6591 19.6696 24.3051 19.4205 23.9106 19.2547C23.5161 19.0888 23.0905 19.0102 22.6628 19.0242" fill="#FF7900"/>
    <path d="M31.1463 18.8312V14.3365H43.5459C41.7843 10.0922 38.8044 6.4652 34.9826 3.91352C31.1608 1.36184 26.6685 0 22.0732 0C17.4778 0 12.9856 1.36184 9.16377 3.91352C5.34198 6.4652 2.36209 10.0922 0.600507 14.3365H5.22259C7.64889 14.3365 9.60084 15.085 11.0785 16.5821C12.5561 18.0791 13.2949 20.0286 13.2949 22.4306C13.2949 24.8302 12.5561 26.7786 11.0785 28.2756C9.60084 29.7726 7.64646 30.5211 5.21532 30.5211H0C1.14671 33.9874 3.09405 37.1347 5.68417 39.708C8.27428 42.2812 11.4343 44.2079 14.908 45.3319C18.3817 46.4559 22.0715 46.7456 25.678 46.1774C29.2846 45.6093 32.7066 44.1993 35.6665 42.0618V18.8312H31.1463ZM28.2712 28.1191C27.5526 28.8775 26.6835 29.4774 25.7196 29.8803C24.7557 30.2833 23.7182 30.4805 22.6737 30.4592C21.6297 30.4804 20.5928 30.2832 19.6295 29.8802C18.6662 29.4772 17.7978 28.8774 17.0799 28.1191C16.3363 27.3646 15.7518 26.4684 15.3611 25.4838C14.9704 24.4991 14.7813 23.446 14.8052 22.387C14.7809 21.3273 14.9696 20.2735 15.3604 19.2882C15.7511 18.3029 16.3359 17.4062 17.0799 16.6512C17.7978 15.8929 18.6662 15.2931 19.6295 14.8901C20.5928 14.4871 21.6297 14.2899 22.6737 14.3111C23.7182 14.2898 24.7557 14.487 25.7196 14.89C26.6835 15.2929 27.5526 15.8928 28.2712 16.6512C29.0145 17.4067 29.5988 18.3035 29.9895 19.2887C30.3802 20.2739 30.5694 21.3274 30.5458 22.387C30.5689 23.4459 30.3795 24.4988 29.9888 25.4833C29.5981 26.4678 29.0141 27.3641 28.2712 28.1191Z" fill="#055445"/>
    <path d="M44.8925 18.8276H40.5761V37.2759C43.6515 33.239 45.314 28.3027 45.3074 23.2277C45.3082 21.7512 45.1693 20.278 44.8925 18.8276Z" fill="#055445"/>
</svg>
