<svg width="39" height="50" viewBox="0 0 39 50" fill="none" xmlns="http://www.w3.org/2000/svg">
    <path d="M11.3225 3.69465L13.191 1.0045L15.1694 3.85284L15.541 4.38795L15.9127 3.85284L17.5484 1.49783V11.5819H9.01637V1.44474L10.5792 3.69466L10.9508 4.22976L11.3225 3.69465Z" fill="#FFD9B0" stroke="#055445" stroke-width="0.905061"/>
    <path d="M21.7964 11.1294H4.76829C2.13484 11.1294 0 13.2642 0 15.8977V37.4866C0 40.1201 2.13484 42.2549 4.76829 42.2549H21.7964C24.4299 42.2549 26.5647 40.1201 26.5647 37.4866V15.8977C26.5647 13.2642 24.4299 11.1294 21.7964 11.1294Z" fill="#055445"/>
    <path d="M20.2781 16.2244H7.21215C6.61578 16.2244 6.13232 16.7078 6.13232 17.3042V23.4715C6.13232 24.0679 6.61578 24.5513 7.21215 24.5513H20.2781C20.8744 24.5513 21.3579 24.0679 21.3579 23.4715V17.3042C21.3579 16.7078 20.8744 16.2244 20.2781 16.2244Z" fill="white" stroke="#055445" stroke-width="1.04194" stroke-miterlimit="10"/>
    <path d="M6.95837 28.6482H9.91937" stroke="#FFD9B0" stroke-width="1.35926" stroke-linecap="round" stroke-linejoin="round"/>
    <path d="M12.2446 28.6482H15.2056" stroke="#FFD9B0" stroke-width="1.35926" stroke-linecap="round" stroke-linejoin="round"/>
    <path d="M17.5718 28.6482H20.5318" stroke="#FFD9B0" stroke-width="1.35926" stroke-linecap="round" stroke-linejoin="round"/>
    <path d="M6.95837 31.503H9.91937" stroke="#FFD9B0" stroke-width="1.35926" stroke-linecap="round" stroke-linejoin="round"/>
    <path d="M12.2446 31.503H15.2056" stroke="#FFD9B0" stroke-width="1.35926" stroke-linecap="round" stroke-linejoin="round"/>
    <path d="M17.5718 31.503H20.5318" stroke="#FFD9B0" stroke-width="1.35926" stroke-linecap="round" stroke-linejoin="round"/>
    <path d="M6.95837 34.3578H9.91937" stroke="#FFD9B0" stroke-width="1.35926" stroke-linecap="round" stroke-linejoin="round"/>
    <path d="M12.2446 34.3578H20.5318" stroke="#FFD9B0" stroke-width="1.35926" stroke-linecap="round" stroke-linejoin="round"/>
    <path d="M12.1775 20.3125L13.6656 21.4577L16.2297 18.8936" stroke="#055445" stroke-width="1.04194" stroke-linecap="round" stroke-linejoin="round"/>
    <path d="M17.9734 21.9902H37.1186C37.3022 21.9902 37.4783 22.0631 37.6082 22.193C37.738 22.3228 37.811 22.4989 37.811 22.6826V44.7092C37.811 45.8472 37.3589 46.9386 36.5542 47.7433C35.7495 48.548 34.6581 49.0001 33.5201 49.0001H17.9734C17.7898 49.0001 17.6137 48.9271 17.4838 48.7973C17.354 48.6674 17.281 48.4913 17.281 48.3076V22.6807C17.2815 22.4974 17.3547 22.3218 17.4845 22.1923C17.6143 22.0629 17.7901 21.9902 17.9734 21.9902Z" fill="#E4FFE1" stroke="#055445" stroke-width="1.669" stroke-linecap="round" stroke-linejoin="round"/>
    <path d="M34.2126 49.0001C34.2126 49.0001 30.2409 48.8855 30.6425 43.4948H12.1775V45.1544C12.1774 45.6594 12.2768 46.1596 12.47 46.6262C12.6632 47.0928 12.9465 47.5168 13.3036 47.874C13.6607 48.2311 14.0847 48.5144 14.5514 48.7076C15.018 48.9008 15.5181 49.0002 16.0232 49.0001H34.2098" fill="#E4FFE1"/>
    <path d="M34.2126 49.0001C34.2126 49.0001 30.2409 48.8855 30.6425 43.4948H12.1775V45.1544C12.1774 45.6594 12.2768 46.1596 12.47 46.6262C12.6632 47.0928 12.9465 47.5168 13.3036 47.874C13.6607 48.2311 14.0847 48.5144 14.5514 48.7076C15.018 48.9008 15.5181 49.0002 16.0232 49.0001H34.2098" stroke="#055445" stroke-width="1.669" stroke-linecap="round" stroke-linejoin="round"/>
    <path d="M20.1075 25.8075H34.9845" stroke="#055445" stroke-width="0.827867" stroke-miterlimit="10" stroke-linecap="round"/>
    <path d="M20.1075 28.9058H34.9845" stroke="#055445" stroke-width="0.827867" stroke-miterlimit="10" stroke-linecap="round"/>
    <path d="M20.1075 32.0042H34.9845" stroke="#055445" stroke-width="0.827867" stroke-miterlimit="10" stroke-linecap="round"/>
    <path d="M20.1075 35.1025H34.9845" stroke="#055445" stroke-width="0.827867" stroke-miterlimit="10" stroke-linecap="round"/>
    <path d="M20.1075 38.1999H34.9845" stroke="#055445" stroke-width="0.827867" stroke-miterlimit="10" stroke-linecap="round"/>
</svg>
